<svg xmlns="http://www.w3.org/2000/svg" version="1.1" xmlns:xlink="http://www.w3.org/1999/xlink" xmlns:svgjs="http://svgjs.com/svgjs" width="1920" height="300000" preserveAspectRatio="none" viewBox="0 0 1920 300000"><g mask="url(&quot;#SvgjsMask1028&quot;)" fill="none"><rect width="1920" height="300000" x="0" y="0" fill="#0e2a47"></rect><path d="M618 297200L617 167182" stroke-width="6" stroke="url(#SvgjsLinearGradient1029)" stroke-linecap="round" class="Up"></path><path d="M638 146689L637 63487" stroke-width="10" stroke="url(#SvgjsLinearGradient1029)" stroke-linecap="round" class="Up"></path><path d="M1408 62006L1407 -108388" stroke-width="10" stroke="url(#SvgjsLinearGradient1029)" stroke-linecap="round" class="Up"></path><path d="M612 218256L611 33272" stroke-width="6" stroke="url(#SvgjsLinearGradient1030)" stroke-linecap="round" class="Down"></path><path d="M412 242760L411 138803" stroke-width="6" stroke="url(#SvgjsLinearGradient1030)" stroke-linecap="round" class="Down"></path><path d="M1602 262410L1601 358967" stroke-width="10" stroke="url(#SvgjsLinearGradient1029)" stroke-linecap="round" class="Up"></path><path d="M275 30508L274 194565" stroke-width="8" stroke="url(#SvgjsLinearGradient1030)" stroke-linecap="round" class="Down"></path><path d="M1174 172941L1173 -7443" stroke-width="6" stroke="url(#SvgjsLinearGradient1030)" stroke-linecap="round" class="Down"></path><path d="M839 33559L838 193923" stroke-width="10" stroke="url(#SvgjsLinearGradient1029)" stroke-linecap="round" class="Up"></path><path d="M1095 185316L1094 47982" stroke-width="10" stroke="url(#SvgjsLinearGradient1029)" stroke-linecap="round" class="Up"></path><path d="M838 105219L837 -94248" stroke-width="10" stroke="url(#SvgjsLinearGradient1030)" stroke-linecap="round" class="Down"></path><path d="M724 119284L723 19665" stroke-width="8" stroke="url(#SvgjsLinearGradient1029)" stroke-linecap="round" class="Up"></path><path d="M254 289412L253 487044" stroke-width="8" stroke="url(#SvgjsLinearGradient1029)" stroke-linecap="round" class="Up"></path><path d="M1212 117584L1211 4720" stroke-width="10" stroke="url(#SvgjsLinearGradient1030)" stroke-linecap="round" class="Down"></path><path d="M1063 195260L1062 396521" stroke-width="10" stroke="url(#SvgjsLinearGradient1030)" stroke-linecap="round" class="Down"></path><path d="M1121 73317L1120 -114192" stroke-width="8" stroke="url(#SvgjsLinearGradient1029)" stroke-linecap="round" class="Up"></path><path d="M724 155653L723 270007" stroke-width="8" stroke="url(#SvgjsLinearGradient1029)" stroke-linecap="round" class="Up"></path><path d="M206 275422L205 361511" stroke-width="6" stroke="url(#SvgjsLinearGradient1030)" stroke-linecap="round" class="Down"></path><path d="M266 1733L265 -206074" stroke-width="8" stroke="url(#SvgjsLinearGradient1029)" stroke-linecap="round" class="Up"></path><path d="M345 166529L344 359989" stroke-width="8" stroke="url(#SvgjsLinearGradient1029)" stroke-linecap="round" class="Up"></path><path d="M1726 247746L1725 43828" stroke-width="8" stroke="url(#SvgjsLinearGradient1029)" stroke-linecap="round" class="Up"></path><path d="M1085 168752L1084 22867" stroke-width="8" stroke="url(#SvgjsLinearGradient1029)" stroke-linecap="round" class="Up"></path><path d="M76 58629L75 -34501" stroke-width="6" stroke="url(#SvgjsLinearGradient1030)" stroke-linecap="round" class="Down"></path><path d="M1831 159521L1830 -32923" stroke-width="6" stroke="url(#SvgjsLinearGradient1030)" stroke-linecap="round" class="Down"></path><path d="M1857 255053L1856 464100" stroke-width="8" stroke="url(#SvgjsLinearGradient1030)" stroke-linecap="round" class="Down"></path><path d="M1159 231032L1158 111445" stroke-width="10" stroke="url(#SvgjsLinearGradient1029)" stroke-linecap="round" class="Up"></path><path d="M1820 2494L1819 -199203" stroke-width="8" stroke="url(#SvgjsLinearGradient1030)" stroke-linecap="round" class="Down"></path><path d="M750 185962L749 110213" stroke-width="10" stroke="url(#SvgjsLinearGradient1030)" stroke-linecap="round" class="Down"></path><path d="M1008 89128L1007 223901" stroke-width="10" stroke="url(#SvgjsLinearGradient1030)" stroke-linecap="round" class="Down"></path><path d="M893 251742L892 138149" stroke-width="6" stroke="url(#SvgjsLinearGradient1030)" stroke-linecap="round" class="Down"></path><path d="M1 153495L0 -55662" stroke-width="6" stroke="url(#SvgjsLinearGradient1029)" stroke-linecap="round" class="Up"></path><path d="M1129 150581L1128 335251" stroke-width="10" stroke="url(#SvgjsLinearGradient1029)" stroke-linecap="round" class="Up"></path><path d="M680 145777L679 316492" stroke-width="6" stroke="url(#SvgjsLinearGradient1030)" stroke-linecap="round" class="Down"></path><path d="M1657 238957L1656 416982" stroke-width="6" stroke="url(#SvgjsLinearGradient1030)" stroke-linecap="round" class="Down"></path><path d="M194 37933L193 253585" stroke-width="6" stroke="url(#SvgjsLinearGradient1029)" stroke-linecap="round" class="Up"></path><path d="M1851 52670L1850 197523" stroke-width="8" stroke="url(#SvgjsLinearGradient1030)" stroke-linecap="round" class="Down"></path><path d="M1080 59803L1079 269522" stroke-width="8" stroke="url(#SvgjsLinearGradient1029)" stroke-linecap="round" class="Up"></path><path d="M1444 255851L1443 166064" stroke-width="10" stroke="url(#SvgjsLinearGradient1030)" stroke-linecap="round" class="Down"></path><path d="M468 125328L467 -51615" stroke-width="8" stroke="url(#SvgjsLinearGradient1029)" stroke-linecap="round" class="Up"></path><path d="M1777 216240L1776 403665" stroke-width="8" stroke="url(#SvgjsLinearGradient1030)" stroke-linecap="round" class="Down"></path><path d="M1855 162175L1854 -26294" stroke-width="8" stroke="url(#SvgjsLinearGradient1030)" stroke-linecap="round" class="Down"></path><path d="M218 245463L217 106089" stroke-width="8" stroke="url(#SvgjsLinearGradient1029)" stroke-linecap="round" class="Up"></path><path d="M1575 160815L1574 -47587" stroke-width="10" stroke="url(#SvgjsLinearGradient1030)" stroke-linecap="round" class="Down"></path><path d="M1271 245858L1270 73224" stroke-width="8" stroke="url(#SvgjsLinearGradient1030)" stroke-linecap="round" class="Down"></path><path d="M969 152854L968 38027" stroke-width="10" stroke="url(#SvgjsLinearGradient1030)" stroke-linecap="round" class="Down"></path><path d="M563 160493L562 253860" stroke-width="6" stroke="url(#SvgjsLinearGradient1029)" stroke-linecap="round" class="Up"></path><path d="M1634 179397L1633 268374" stroke-width="8" stroke="url(#SvgjsLinearGradient1030)" stroke-linecap="round" class="Down"></path><path d="M1773 256377L1772 110923" stroke-width="8" stroke="url(#SvgjsLinearGradient1029)" stroke-linecap="round" class="Up"></path></g><defs><mask id="SvgjsMask1028"><rect width="1920" height="300000" fill="#ffffff"></rect></mask><linearGradient x1="0%" y1="100%" x2="0%" y2="0%" id="SvgjsLinearGradient1029"><stop stop-color="rgba(28, 83, 142, 0)" offset="0"></stop><stop stop-color="#1c538e" offset="1"></stop></linearGradient><linearGradient x1="0%" y1="0%" x2="0%" y2="100%" id="SvgjsLinearGradient1030"><stop stop-color="rgba(28, 83, 142, 0)" offset="0"></stop><stop stop-color="#1c538e" offset="1"></stop></linearGradient></defs></svg>