<svg xmlns="http://www.w3.org/2000/svg" version="1.1" xmlns:xlink="http://www.w3.org/1999/xlink" xmlns:svgjs="http://svgjs.com/svgjs" width="1920" height="5000" preserveAspectRatio="none" viewBox="0 0 1920 5000"><g mask="url(&quot;#SvgjsMask1066&quot;)" fill="none"><rect width="1920" height="5000" x="0" y="0" fill="#0e2a47"></rect><path d="M0,1993.461C418.733,2096.958,870.947,2141.863,1267.621,1972.456C1694.824,1790.011,2104.904,1469.515,2255.676,1030.133C2403.736,598.654,2212.379,130.426,2045.375,-294.08C1905.797,-648.872,1590.251,-877.728,1379.991,-1195.769C1128.213,-1576.61,1133.522,-2242.577,688.842,-2345.981C234.81,-2451.56,-37.179,-1779.457,-477.969,-1627.812C-886.469,-1487.276,-1459.235,-1836.049,-1742.204,-1509.628C-2025.153,-1183.23,-1656.083,-672.829,-1679.732,-241.509C-1700.464,136.612,-2028.389,510.025,-1871.847,854.844C-1715.325,1199.62,-1243.607,1234.946,-920.113,1431.723C-606.759,1622.332,-356.058,1905.456,0,1993.461" fill="#091b2e"></path><path d="M1920 6628.07C2232.679 6590.8240000000005 2530.649 6527.84 2815.158 6392.894 3134.875 6241.248 3536.304 6126.763 3668.7349999999997 5798.621 3801.2560000000003 5470.255 3525.468 5126.815 3467.0699999999997 4777.565 3410.44 4438.891 3529.2309999999998 4057.772 3330.7889999999998 3777.544 3128.3779999999997 3491.7110000000002 2768.527 3329.075 2419.627 3298.426 2094.21 3269.84 1808.779 3476.773 1514.1979999999999 3617.965 1265.4389999999999 3737.1949999999997 1048.3600000000001 3885.5029999999997 833.5830000000001 4058.614 572.0909999999999 4269.377 210.66100000000006 4417.741 120.51700000000005 4741.273 29.439000000000078 5068.156 248.212 5390.839 374.653 5705.736 507.2919999999999 6036.067 570.7629999999999 6441.398999999999 876.4259999999999 6623.8330000000005 1181.304 6805.798 1567.44 6670.066 1920 6628.07" fill="#133960"></path></g><defs><mask id="SvgjsMask1066"><rect width="1920" height="5000" fill="#ffffff"></rect></mask></defs></svg>